<?xml version="1.0" encoding="utf-8"?>
<!-- Generator: Adobe Illustrator 23.0.2, SVG Export Plug-In . SVG Version: 6.00 Build 0)  -->
<svg version="1.1" id="Layer_1" xmlns="http://www.w3.org/2000/svg" xmlns:xlink="http://www.w3.org/1999/xlink" x="0px" y="0px"
	 viewBox="0 0 106.82 25.3" style="enable-background:new 0 0 106.82 25.3;" xml:space="preserve">
<style type="text/css">
	.st0{fill:#FFFFFF;}
</style>
<g>
	<path class="st0" d="M4.54,17.06v2.99c0.03,0.87,0.35,1.61,1.45,1.61c1.61,0,1.64-1.22,1.64-2.54V0.59h4.5v17.6
		c0,1.64,0.13,3.99-1.32,5.53C9.5,25.14,7.5,25.3,5.31,25.3c-1.61,0-3.41-0.61-4.63-2.48c-0.55-0.87-0.77-3.54-0.64-5.76H4.54z"/>
	<path class="st0" d="M20.69,15.07h3.86l-1.22-6.85c-0.23-1.13-0.32-2.22-0.45-3.35c-0.03-0.55-0.1-1.09-0.16-1.61h-0.07
		c-0.06,0.51-0.13,1.06-0.16,1.61c-0.13,1.13-0.23,2.22-0.45,3.35L20.69,15.07z M13.96,24.72l5.76-24.13h6.08l5.47,24.13h-4.83
		l-1.19-6.11h-5.28l-1.19,6.11H13.96z"/>
	<path class="st0" d="M32.63,21.12l7.75-14.96c0.39-0.71,0.71-1.45,1.25-2.12c-0.58,0.1-1.16,0.1-1.74,0.1h-6.76V0.59h13.19v3.6
		l-7.75,14.96c-0.39,0.71-0.71,1.45-1.25,2.12c0.58-0.1,1.16-0.1,1.74-0.1h7.56v3.54h-14V21.12z"/>
	<path class="st0" d="M81.17,6.91c0.48,1.19,0.87,2.41,1.06,3.7h0.07c0.32-1.86,0.93-3.22,1.48-4.57l2.15-5.47h4.92l-6.37,13.86
		v10.26h-4.5V14.44L73.71,0.58h4.92L81.17,6.91z"/>
	<path class="st0" d="M63.29,6.91c0.48,1.19,0.87,2.41,1.06,3.7h0.07c0.32-1.86,0.93-3.22,1.48-4.57l2.15-5.47h4.92l-6.37,13.86
		v10.26h-4.5V14.44L55.84,0.58h4.92L63.29,6.91z"/>
	<path class="st0" d="M106.82,16.11c-0.03,0.45-0.06,0.93-0.1,1.38c-0.23,4.4-1.7,7.78-6.72,7.78c-7.4,0-7.88-4.69-7.88-11.12v-3.44
		C92.32,4.57,92.81,0,100.01,0c4.02,0.07,6.27,2.12,6.59,6.24c0.07,0.61,0.13,1.22,0.1,1.83h-4.44c-0.19-1.54-0.03-4.44-2.25-4.44
		c-3.54,0-3.25,4.21-3.25,6.08v6.69c0,1.99,0.16,5.24,3.25,5.24c2.47,0,2.19-3.99,2.28-5.53H106.82z"/>
</g>
<polygon class="st0" points="53.83,0.59 49.24,0.59 49.24,4.13 55.44,4.13 "/>
<g>
	<path class="st0" d="M53.42,21.28c0.55-0.68,0.87-1.42,1.25-2.12l4.05-7.81l-2.31-5.07l-7.69,14.85v3.6h11.59v-3.54h-5.15
		C54.58,21.18,54,21.18,53.42,21.28"/>
</g>
</svg>
